#N canvas 705 120 316 412 10;
#X obj 61 262 print;
#X obj 60 175 bonk~;
#X obj 60 121 adc~;
#X obj 109 262 s tempo;
#X obj 53 197 unpack f f f;
#X obj 59 149 *~ 0.03;
#X obj 61 224 pdbeatclassification;
#X obj 212 107 receive threshUp;
#X obj 160 67 receive threshDown;
#X msg 173 185 td;
#X msg 216 179 tu;
#X connect 1 1 4 0;
#X connect 2 0 5 0;
#X connect 4 1 6 0;
#X connect 5 0 1 0;
#X connect 6 0 0 0;
#X connect 6 0 3 0;
#X connect 7 0 10 0;
#X connect 8 0 9 0;
#X connect 9 0 6 0;
#X connect 10 0 6 0;
