#N canvas 265 279 557 525 10;
#N canvas 1119 366 535 452 handSound 1;
#X obj 52 327 line~;
#X obj 40 351 *~;
#X floatatom 71 225 5 0 0 0 - - -;
#X obj 43 111 noise~;
#X obj 41 400 throw~ toDAC;
#X obj 242 36 inlet;
#X msg 104 294 1 5;
#X msg 98 326 0 10;
#X obj 213 120 del;
#X floatatom 243 64 5 0 0 0 - - -;
#X obj 71 201 line;
#X obj 65 145 pack f;
#X floatatom 134 230 5 0 0 0 - - -;
#X obj 137 121 t f b b b;
#X obj 184 325 env~;
#X floatatom 182 354 5 0 0 0 - - -;
#X obj 41 250 bp~ 1000 14;
#X obj 194 29 bng 15 250 50 0 empty empty empty 17 7 0 10 -262144 -1
-1;
#X msg 66 168 3200 \$1;
#X msg 127 169 800;
#X obj 345 37 inlet;
#X floatatom 346 65 5 0 0 0 - - -;
#X obj 297 30 bng 15 250 50 0 empty empty empty 17 7 0 10 -262144 -1
-1;
#X obj 257 119 t f b b b;
#X obj 231 149 pack f;
#X msg 232 172 800 \$1;
#X msg 293 173 3200;
#X obj 41 374 *~ 0.7;
#X connect 0 0 1 1;
#X connect 1 0 14 0;
#X connect 1 0 27 0;
#X connect 2 0 16 1;
#X connect 3 0 16 0;
#X connect 5 0 9 0;
#X connect 6 0 0 0;
#X connect 7 0 0 0;
#X connect 8 0 7 0;
#X connect 9 0 8 1;
#X connect 9 0 13 0;
#X connect 10 0 2 0;
#X connect 11 0 18 0;
#X connect 12 0 16 2;
#X connect 13 0 11 0;
#X connect 13 1 6 0;
#X connect 13 2 19 0;
#X connect 13 3 8 0;
#X connect 14 0 15 0;
#X connect 16 0 1 0;
#X connect 17 0 9 0;
#X connect 18 0 10 0;
#X connect 19 0 10 0;
#X connect 20 0 21 0;
#X connect 21 0 8 1;
#X connect 21 0 23 0;
#X connect 22 0 21 0;
#X connect 23 0 24 0;
#X connect 23 1 6 0;
#X connect 23 2 26 0;
#X connect 23 3 8 0;
#X connect 24 0 25 0;
#X connect 25 0 10 0;
#X connect 26 0 10 0;
#X connect 27 0 4 0;
#X restore 37 176 pd handSound;
#X text 36 136 sounds for Travis' hand;
#X obj 143 155 receive handUp;
#X obj 36 155 receive handDown;
#X obj 427 312 catch~ toDAC;
#X obj 443 346 dac~;
#X connect 2 0 0 1;
#X connect 3 0 0 0;
#X connect 4 0 5 0;
#X connect 4 0 5 1;
